<svg width="49" height="49" viewBox="0 0 49 49" fill="none" xmlns="http://www.w3.org/2000/svg">
<path d="M47.5858 0H1C0.447715 0 0 0.447714 0 0.999999V9.71429C0 10.2666 0.447715 10.7143 1 10.7143H24.7836C25.6745 10.7143 26.1207 11.7914 25.4907 12.4214L12.6961 25.216C12.0662 25.8459 10.989 25.3998 10.989 24.5089V22.7033C10.989 22.151 10.5413 21.7033 9.98901 21.7033H1C0.447715 21.7033 0 22.151 0 22.7033V47.5858C0 48.4767 1.07714 48.9229 1.70711 48.2929L48.2929 1.70711C48.9229 1.07714 48.4767 0 47.5858 0Z" fill="url(#paint0_linear_553_98)"/>
<defs>
<linearGradient id="paint0_linear_553_98" x1="25" y1="0" x2="25" y2="50" gradientUnits="userSpaceOnUse">
<stop stop-color="#078C4E"/>
<stop offset="1" stop-color="#056739"/>
</linearGradient>
</defs>
</svg>
